<svg width="41" height="32" viewBox="0 0 41 32" fill="none" xmlns="http://www.w3.org/2000/svg">
<path d="M40.2356 0.576257C40.6872 0.978072 40.9608 1.5427 40.9962 2.1461C41.0317 2.74949 40.8263 3.3423 40.4249 3.79428L16.0993 31.1623C15.8853 31.4031 15.6228 31.5958 15.3289 31.7278C15.0351 31.8598 14.7166 31.928 14.3945 31.928C14.0724 31.928 13.7539 31.8598 13.4601 31.7278C13.1662 31.5958 12.9037 31.4031 12.6897 31.1623L0.526875 17.4783C0.148554 17.0232 -0.0380552 16.4389 0.00646807 15.8488C0.0509913 15.2586 0.32316 14.7089 0.76548 14.3158C1.2078 13.9226 1.78563 13.7167 2.37691 13.7417C2.96819 13.7667 3.5266 14.0205 3.9342 14.4496L14.3934 26.2156L37.0176 0.763273C37.4197 0.312055 37.9845 0.0389109 38.5879 0.00384506C39.1913 -0.0312207 39.7839 0.174659 40.2356 0.576257Z" fill="#969696"/>
</svg>
