<svg width="31" height="34" viewBox="0 0 31 34" fill="none" xmlns="http://www.w3.org/2000/svg">
<g filter="url(#filter0_d_85_12)">
<path d="M15.3 3.4C13.4965 3.4 11.7669 4.11643 10.4917 5.39167C9.21643 6.66692 8.5 8.39653 8.5 10.2C8.5 12.0035 9.21643 13.7331 10.4917 15.0083C11.7669 16.2836 13.4965 17 15.3 17C17.1035 17 18.8331 16.2836 20.1083 15.0083C21.3836 13.7331 22.1 12.0035 22.1 10.2C22.1 8.39653 21.3836 6.66692 20.1083 5.39167C18.8331 4.11643 17.1035 3.4 15.3 3.4ZM5.1 10.2C5.1 7.49479 6.17464 4.90038 8.08751 2.98751C10.0004 1.07464 12.5948 0 15.3 0C18.0052 0 20.5996 1.07464 22.5125 2.98751C24.4254 4.90038 25.5 7.49479 25.5 10.2C25.5 12.9052 24.4254 15.4996 22.5125 17.4125C20.5996 19.3254 18.0052 20.4 15.3 20.4C12.5948 20.4 10.0004 19.3254 8.08751 17.4125C6.17464 15.4996 5.1 12.9052 5.1 10.2ZM8.5 27.2C7.1474 27.2 5.85019 27.7373 4.89376 28.6938C3.93732 29.6502 3.4 30.9474 3.4 32.3C3.4 32.7509 3.22089 33.1833 2.90208 33.5021C2.58327 33.8209 2.15087 34 1.7 34C1.24913 34 0.81673 33.8209 0.497918 33.5021C0.179107 33.1833 0 32.7509 0 32.3C0 30.0457 0.895533 27.8837 2.48959 26.2896C4.08365 24.6955 6.24566 23.8 8.5 23.8H22.1C24.3543 23.8 26.5164 24.6955 28.1104 26.2896C29.7045 27.8837 30.6 30.0457 30.6 32.3C30.6 32.7509 30.4209 33.1833 30.1021 33.5021C29.7833 33.8209 29.3509 34 28.9 34C28.4491 34 28.0167 33.8209 27.6979 33.5021C27.3791 33.1833 27.2 32.7509 27.2 32.3C27.2 30.9474 26.6627 29.6502 25.7062 28.6938C24.7498 27.7373 23.4526 27.2 22.1 27.2H8.5Z" fill="#0D0D0D"/>
</g>
<defs>
<filter id="filter0_d_85_12" x="-0.601186" y="0" width="31.8023" height="35.2024" filterUnits="userSpaceOnUse" color-interpolation-filters="sRGB">
<feFlood flood-opacity="0" result="BackgroundImageFix"/>
<feColorMatrix in="SourceAlpha" type="matrix" values="0 0 0 0 0 0 0 0 0 0 0 0 0 0 0 0 0 0 127 0" result="hardAlpha"/>
<feOffset dy="0.6"/>
<feGaussianBlur stdDeviation="0.3"/>
<feComposite in2="hardAlpha" operator="out"/>
<feColorMatrix type="matrix" values="0 0 0 0 0 0 0 0 0 0 0 0 0 0 0 0 0 0 0.25 0"/>
<feBlend mode="normal" in2="BackgroundImageFix" result="effect1_dropShadow_85_12"/>
<feBlend mode="normal" in="SourceGraphic" in2="effect1_dropShadow_85_12" result="shape"/>
</filter>
</defs>
</svg>
