<svg width="32" height="32" viewBox="0 0 32 32" fill="none" xmlns="http://www.w3.org/2000/svg">
<path d="M0.668646 0.697196C1.09691 0.269063 1.67768 0.0285507 2.28324 0.0285507C2.88881 0.0285507 3.46958 0.269063 3.89784 0.697196L15.9856 12.785L28.0734 0.697196C28.2841 0.479077 28.5361 0.305097 28.8147 0.185409C29.0933 0.0657209 29.393 0.00272123 29.6962 8.62269e-05C29.9995 -0.00254878 30.3002 0.055233 30.5808 0.170061C30.8615 0.284889 31.1165 0.454463 31.3309 0.668889C31.5453 0.883314 31.7149 1.1383 31.8297 1.41896C31.9446 1.69962 32.0023 2.00034 31.9997 2.30357C31.9971 2.60681 31.9341 2.90648 31.8144 3.1851C31.6947 3.46373 31.5207 3.71572 31.3026 3.92639L19.2148 16.0142L31.3026 28.102C31.7186 28.5327 31.9488 29.1095 31.9436 29.7083C31.9384 30.3071 31.6982 30.8799 31.2748 31.3033C30.8514 31.7268 30.2786 31.9669 29.6798 31.9721C29.081 31.9773 28.5041 31.7472 28.0734 31.3312L15.9856 19.2434L3.89784 31.3312C3.46712 31.7472 2.89025 31.9773 2.29146 31.9721C1.69267 31.9669 1.11989 31.7268 0.696464 31.3033C0.273042 30.8799 0.0328642 30.3071 0.0276609 29.7083C0.0224576 29.1095 0.252646 28.5327 0.668646 28.102L12.7564 16.0142L0.668646 3.92639C0.240512 3.49813 0 2.91736 0 2.31179C0 1.70623 0.240512 1.12546 0.668646 0.697196Z" fill="#969696"/>
</svg>
