<svg width="97" height="45" viewBox="0 0 97 45" fill="none" xmlns="http://www.w3.org/2000/svg">
<path fill-rule="evenodd" clip-rule="evenodd" d="M12.6434 0C11.8404 0 11.1378 0.539813 10.9309 1.31564L0.0608097 42.0785C-0.239227 43.2036 0.60881 44.3074 1.77327 44.3074H84.3567C85.1596 44.3074 85.8622 43.7676 86.0691 42.9918L96.9392 2.22895C97.2392 1.10382 96.3911 0 95.2267 0H12.6434ZM23.7423 11.8273H20.1875L20.196 32.4801H23.7509L23.7423 11.8273ZM40.7797 14.9553V11.8273H25.0672V14.9553H31.146L31.1545 32.4801H34.7095L34.7008 14.9553H40.7797ZM39.343 32.4802V30.2996H40.17V28.3789H41.0237V26.5649H41.744V24.6709H42.6243V22.8302H43.638V20.0025H48.42L53.3003 32.4802H49.7159L46.0389 23.0969H45.3186V25.0977H44.4383V26.9383H43.7181V28.8323H42.8911V30.2996H45.7971V32.4802H41.9916H39.343ZM56.4125 30.0359L56.4128 32.4802H58.6371V30.7225H60.0103V28.1958H61.0814V25.6692H62.2898V23.115H63.6081V20.5883H64.6791V32.4802H67.2058V30.7225H68.3791V28.1959H69.4501V25.6692H70.6586V23.115H71.9768V20.5884H73.0479V32.4802H76.8127V15.535V11.8356H72.9106V14.7385H71.9219V17.2652H70.686V19.8193H69.3128V22.346H68.3242V24.8727H67.2058V15.535V11.8356H64.5419V14.7385H63.5531V17.2652H62.3172V19.8193H60.944V22.346H59.9554V24.8727H58.7195V27.4268H57.6209V30.0359H56.4125Z" fill="#1B1B1B"/>
</svg>
